<?xml version="1.0" encoding="iso-8859-1"?>
<!-- Generator: Adobe Illustrator 19.0.0, SVG Export Plug-In . SVG Version: 6.00 Build 0)  -->
<svg version="1.1" id="Capa_1" xmlns="http://www.w3.org/2000/svg" xmlns:xlink="http://www.w3.org/1999/xlink" x="0px" y="0px"
	 viewBox="0 0 512 512" style="enable-background:new 0 0 512 512;" xml:space="preserve">
<g>
	<path style="fill:#ECF0F1;" d="M256,460.8c-4.71,0-8.533-3.814-8.533-8.533V332.8c0-4.719,3.823-8.533,8.533-8.533
		c4.71,0,8.533,3.814,8.533,8.533v119.467C264.533,456.986,260.71,460.8,256,460.8z"/>
	<path style="fill:#ECF0F1;" d="M59.733,409.6c-4.71,0-8.533-3.814-8.533-8.533c0-4.719,3.823-8.533,8.533-8.533
		c32.939,0,59.733-26.803,59.733-59.733c0-4.719,3.823-8.533,8.533-8.533c4.71,0,8.533,3.814,8.533,8.533
		C136.533,375.151,102.084,409.6,59.733,409.6z"/>
	<path style="fill:#ECF0F1;" d="M119.467,477.867c-4.71,0-8.533-3.814-8.533-8.533c0-4.719,3.823-8.533,8.533-8.533
		c37.641,0,68.267-30.626,68.267-68.267V332.8c0-4.719,3.823-8.533,8.533-8.533s8.533,3.814,8.533,8.533v59.733
		C204.8,439.586,166.519,477.867,119.467,477.867z"/>
	<path style="fill:#ECF0F1;" d="M452.267,409.6c-42.351,0-76.8-34.449-76.8-76.8c0-4.719,3.823-8.533,8.533-8.533
		s8.533,3.814,8.533,8.533c0,32.93,26.795,59.733,59.733,59.733c4.71,0,8.533,3.814,8.533,8.533
		C460.8,405.786,456.977,409.6,452.267,409.6z"/>
	<path style="fill:#ECF0F1;" d="M392.533,477.867c-47.053,0-85.333-38.281-85.333-85.333V332.8c0-4.719,3.823-8.533,8.533-8.533
		c4.71,0,8.533,3.814,8.533,8.533v59.733c0,37.641,30.626,68.267,68.267,68.267c4.71,0,8.533,3.814,8.533,8.533
		C401.067,474.052,397.244,477.867,392.533,477.867z"/>
</g>
<path style="fill:#D0E8F9;" d="M401.067,341.333h-307.2C42.112,341.333,0,299.221,0,247.467c0-52.48,43.238-94.891,96.043-93.841
	c-1.442-5.547-2.176-11.255-2.176-17.092c0-37.641,30.626-68.267,68.267-68.267c7.381,0,14.601,1.186,21.564,3.533
	C205.099,27.913,249.344,0,298.667,0c68.745,0,125.005,54.485,127.889,122.522C476.476,134.204,512,178.475,512,230.4
	C512,291.567,462.234,341.333,401.067,341.333z"/>
<g>
	<path style="fill:#B4CFDF;" d="M503.467,238.933c-4.71,0-8.533-3.814-8.533-8.533c0-51.755-42.112-93.867-93.867-93.867
		S307.2,178.645,307.2,230.4c0,4.719-3.823,8.533-8.533,8.533s-8.533-3.814-8.533-8.533c0-61.167,49.766-110.933,110.933-110.933
		S512,169.233,512,230.4C512,235.119,508.177,238.933,503.467,238.933z"/>
	<path style="fill:#B4CFDF;" d="M187.042,179.191c-3.439,0-6.673-2.082-7.97-5.487c-5.581-14.583-8.405-29.961-8.405-45.705
		c0-70.579,57.421-128,128-128c4.71,0,8.533,3.814,8.533,8.533s-3.823,8.533-8.533,8.533C237.5,17.067,187.733,66.833,187.733,128
		c0,13.653,2.449,26.982,7.279,39.612c1.681,4.403-0.521,9.335-4.924,11.017C189.09,179.012,188.058,179.191,187.042,179.191z"/>
</g>
<path style="fill:#E64C3C;" d="M256,512c-18.825,0-34.133-15.309-34.133-34.133c0-18.825,15.309-34.133,34.133-34.133
	c18.825,0,34.133,15.309,34.133,34.133C290.133,496.691,274.825,512,256,512z"/>
<path style="fill:#4482C3;" d="M93.867,503.467c-18.825,0-34.133-15.309-34.133-34.133c0-18.825,15.309-34.133,34.133-34.133
	S128,450.509,128,469.333C128,488.158,112.691,503.467,93.867,503.467z"/>
<path style="fill:#F0C419;" d="M34.133,426.667C15.309,426.667,0,411.358,0,392.533S15.309,358.4,34.133,358.4
	s34.133,15.309,34.133,34.133S52.958,426.667,34.133,426.667z"/>
<path style="fill:#24AE5F;" d="M418.133,503.467c-18.825,0-34.133-15.309-34.133-34.133c0-18.825,15.309-34.133,34.133-34.133
	c18.825,0,34.133,15.309,34.133,34.133C452.267,488.158,436.958,503.467,418.133,503.467z"/>
<path style="fill:#F29C1F;" d="M477.867,426.667c-18.825,0-34.133-15.309-34.133-34.133s15.309-34.133,34.133-34.133
	c18.825,0,34.133,15.309,34.133,34.133S496.691,426.667,477.867,426.667z"/>
<g>
</g>
<g>
</g>
<g>
</g>
<g>
</g>
<g>
</g>
<g>
</g>
<g>
</g>
<g>
</g>
<g>
</g>
<g>
</g>
<g>
</g>
<g>
</g>
<g>
</g>
<g>
</g>
<g>
</g>
</svg>
